<svg version="1.1" xmlns="http://www.w3.org/2000/svg" xmlns:xlink="http://www.w3.org/1999/xlink" width="800" height="800"><defs/><g transform="scale(2,2)"><g id="background-c627511a"><rect fill="white" stroke="none" x="0" y="0" width="400" height="400" class="dcg-svg-background"/></g><g id="background-images-c627511a"/><g id="graphpaper-c627511a"><g id="grid-c627511a"><g><path fill="none" stroke="rgb(0,0,0)" class="dcg-svg-minor-gridline" paint-order="fill stroke markers" d=" M 19.5 0 L 19.5 400" stroke-opacity="0.2" stroke-miterlimit="10" stroke-dasharray=""/><path fill="none" stroke="rgb(0,0,0)" class="dcg-svg-minor-gridline" paint-order="fill stroke markers" d=" M 39.5 0 L 39.5 400" stroke-opacity="0.2" stroke-miterlimit="10" stroke-dasharray=""/><path fill="none" stroke="rgb(0,0,0)" class="dcg-svg-minor-gridline" paint-order="fill stroke markers" d=" M 59.5 0 L 59.5 400" stroke-opacity="0.2" stroke-miterlimit="10" stroke-dasharray=""/><path fill="none" stroke="rgb(0,0,0)" class="dcg-svg-minor-gridline" paint-order="fill stroke markers" d=" M 79.5 0 L 79.5 400" stroke-opacity="0.2" stroke-miterlimit="10" stroke-dasharray=""/><path fill="none" stroke="rgb(0,0,0)" class="dcg-svg-minor-gridline" paint-order="fill stroke markers" d=" M 99.5 0 L 99.5 400" stroke-opacity="0.2" stroke-miterlimit="10" stroke-dasharray=""/><path fill="none" stroke="rgb(0,0,0)" class="dcg-svg-minor-gridline" paint-order="fill stroke markers" d=" M 119.5 0 L 119.5 400" stroke-opacity="0.2" stroke-miterlimit="10" stroke-dasharray=""/><path fill="none" stroke="rgb(0,0,0)" class="dcg-svg-minor-gridline" paint-order="fill stroke markers" d=" M 139.5 0 L 139.5 400" stroke-opacity="0.2" stroke-miterlimit="10" stroke-dasharray=""/><path fill="none" stroke="rgb(0,0,0)" class="dcg-svg-minor-gridline" paint-order="fill stroke markers" d=" M 159.5 0 L 159.5 400" stroke-opacity="0.2" stroke-miterlimit="10" stroke-dasharray=""/><path fill="none" stroke="rgb(0,0,0)" class="dcg-svg-minor-gridline" paint-order="fill stroke markers" d=" M 179.5 0 L 179.5 400" stroke-opacity="0.2" stroke-miterlimit="10" stroke-dasharray=""/><path fill="none" stroke="rgb(0,0,0)" class="dcg-svg-minor-gridline" paint-order="fill stroke markers" d=" M 199.5 0 L 199.5 400" stroke-opacity="0.2" stroke-miterlimit="10" stroke-dasharray=""/><path fill="none" stroke="rgb(0,0,0)" class="dcg-svg-minor-gridline" paint-order="fill stroke markers" d=" M 219.5 0 L 219.5 400" stroke-opacity="0.2" stroke-miterlimit="10" stroke-dasharray=""/><path fill="none" stroke="rgb(0,0,0)" class="dcg-svg-minor-gridline" paint-order="fill stroke markers" d=" M 239.5 0 L 239.5 400" stroke-opacity="0.2" stroke-miterlimit="10" stroke-dasharray=""/><path fill="none" stroke="rgb(0,0,0)" class="dcg-svg-minor-gridline" paint-order="fill stroke markers" d=" M 259.5 0 L 259.5 400" stroke-opacity="0.2" stroke-miterlimit="10" stroke-dasharray=""/><path fill="none" stroke="rgb(0,0,0)" class="dcg-svg-minor-gridline" paint-order="fill stroke markers" d=" M 279.5 0 L 279.5 400" stroke-opacity="0.2" stroke-miterlimit="10" stroke-dasharray=""/><path fill="none" stroke="rgb(0,0,0)" class="dcg-svg-minor-gridline" paint-order="fill stroke markers" d=" M 299.5 0 L 299.5 400" stroke-opacity="0.2" stroke-miterlimit="10" stroke-dasharray=""/><path fill="none" stroke="rgb(0,0,0)" class="dcg-svg-minor-gridline" paint-order="fill stroke markers" d=" M 319.5 0 L 319.5 400" stroke-opacity="0.2" stroke-miterlimit="10" stroke-dasharray=""/><path fill="none" stroke="rgb(0,0,0)" class="dcg-svg-minor-gridline" paint-order="fill stroke markers" d=" M 339.5 0 L 339.5 400" stroke-opacity="0.2" stroke-miterlimit="10" stroke-dasharray=""/><path fill="none" stroke="rgb(0,0,0)" class="dcg-svg-minor-gridline" paint-order="fill stroke markers" d=" M 359.5 0 L 359.5 400" stroke-opacity="0.2" stroke-miterlimit="10" stroke-dasharray=""/><path fill="none" stroke="rgb(0,0,0)" class="dcg-svg-minor-gridline" paint-order="fill stroke markers" d=" M 379.5 0 L 379.5 400" stroke-opacity="0.2" stroke-miterlimit="10" stroke-dasharray=""/><path fill="none" stroke="rgb(0,0,0)" class="dcg-svg-minor-gridline" paint-order="fill stroke markers" d=" M 0 379.5 L 400 379.5" stroke-opacity="0.2" stroke-miterlimit="10" stroke-dasharray=""/><path fill="none" stroke="rgb(0,0,0)" class="dcg-svg-minor-gridline" paint-order="fill stroke markers" d=" M 0 359.5 L 400 359.5" stroke-opacity="0.2" stroke-miterlimit="10" stroke-dasharray=""/><path fill="none" stroke="rgb(0,0,0)" class="dcg-svg-minor-gridline" paint-order="fill stroke markers" d=" M 0 339.5 L 400 339.5" stroke-opacity="0.2" stroke-miterlimit="10" stroke-dasharray=""/><path fill="none" stroke="rgb(0,0,0)" class="dcg-svg-minor-gridline" paint-order="fill stroke markers" d=" M 0 319.5 L 400 319.5" stroke-opacity="0.2" stroke-miterlimit="10" stroke-dasharray=""/><path fill="none" stroke="rgb(0,0,0)" class="dcg-svg-minor-gridline" paint-order="fill stroke markers" d=" M 0 299.5 L 400 299.5" stroke-opacity="0.2" stroke-miterlimit="10" stroke-dasharray=""/><path fill="none" stroke="rgb(0,0,0)" class="dcg-svg-minor-gridline" paint-order="fill stroke markers" d=" M 0 279.5 L 400 279.5" stroke-opacity="0.2" stroke-miterlimit="10" stroke-dasharray=""/><path fill="none" stroke="rgb(0,0,0)" class="dcg-svg-minor-gridline" paint-order="fill stroke markers" d=" M 0 259.5 L 400 259.5" stroke-opacity="0.2" stroke-miterlimit="10" stroke-dasharray=""/><path fill="none" stroke="rgb(0,0,0)" class="dcg-svg-minor-gridline" paint-order="fill stroke markers" d=" M 0 239.5 L 400 239.5" stroke-opacity="0.2" stroke-miterlimit="10" stroke-dasharray=""/><path fill="none" stroke="rgb(0,0,0)" class="dcg-svg-minor-gridline" paint-order="fill stroke markers" d=" M 0 219.5 L 400 219.5" stroke-opacity="0.2" stroke-miterlimit="10" stroke-dasharray=""/><path fill="none" stroke="rgb(0,0,0)" class="dcg-svg-minor-gridline" paint-order="fill stroke markers" d=" M 0 199.5 L 400 199.5" stroke-opacity="0.2" stroke-miterlimit="10" stroke-dasharray=""/><path fill="none" stroke="rgb(0,0,0)" class="dcg-svg-minor-gridline" paint-order="fill stroke markers" d=" M 0 179.5 L 400 179.5" stroke-opacity="0.2" stroke-miterlimit="10" stroke-dasharray=""/><path fill="none" stroke="rgb(0,0,0)" class="dcg-svg-minor-gridline" paint-order="fill stroke markers" d=" M 0 159.5 L 400 159.5" stroke-opacity="0.2" stroke-miterlimit="10" stroke-dasharray=""/><path fill="none" stroke="rgb(0,0,0)" class="dcg-svg-minor-gridline" paint-order="fill stroke markers" d=" M 0 139.5 L 400 139.5" stroke-opacity="0.2" stroke-miterlimit="10" stroke-dasharray=""/><path fill="none" stroke="rgb(0,0,0)" class="dcg-svg-minor-gridline" paint-order="fill stroke markers" d=" M 0 119.5 L 400 119.5" stroke-opacity="0.2" stroke-miterlimit="10" stroke-dasharray=""/><path fill="none" stroke="rgb(0,0,0)" class="dcg-svg-minor-gridline" paint-order="fill stroke markers" d=" M 0 99.5 L 400 99.5" stroke-opacity="0.2" stroke-miterlimit="10" stroke-dasharray=""/><path fill="none" stroke="rgb(0,0,0)" class="dcg-svg-minor-gridline" paint-order="fill stroke markers" d=" M 0 79.5 L 400 79.5" stroke-opacity="0.2" stroke-miterlimit="10" stroke-dasharray=""/><path fill="none" stroke="rgb(0,0,0)" class="dcg-svg-minor-gridline" paint-order="fill stroke markers" d=" M 0 59.5 L 400 59.5" stroke-opacity="0.2" stroke-miterlimit="10" stroke-dasharray=""/><path fill="none" stroke="rgb(0,0,0)" class="dcg-svg-minor-gridline" paint-order="fill stroke markers" d=" M 0 39.5 L 400 39.5" stroke-opacity="0.2" stroke-miterlimit="10" stroke-dasharray=""/><path fill="none" stroke="rgb(0,0,0)" class="dcg-svg-minor-gridline" paint-order="fill stroke markers" d=" M 0 19.5 L 400 19.5" stroke-opacity="0.2" stroke-miterlimit="10" stroke-dasharray=""/><path fill="none" stroke="rgb(0,0,0)" class="dcg-svg-minor-gridline" paint-order="fill stroke markers" d=" M 0 -0.5 L 400 -0.5" stroke-opacity="0.2" stroke-miterlimit="10" stroke-dasharray=""/><path fill="none" stroke="rgb(0,0,0)" class="dcg-svg-major-gridline" paint-order="fill stroke markers" d=" M 99.5 0 L 99.5 400" stroke-opacity="0.2500000000000001" stroke-miterlimit="10" stroke-dasharray=""/><path fill="none" stroke="rgb(0,0,0)" class="dcg-svg-major-gridline" paint-order="fill stroke markers" d=" M 199.5 0 L 199.5 400" stroke-opacity="0.2500000000000001" stroke-miterlimit="10" stroke-dasharray=""/><path fill="none" stroke="rgb(0,0,0)" class="dcg-svg-major-gridline" paint-order="fill stroke markers" d=" M 299.5 0 L 299.5 400" stroke-opacity="0.2500000000000001" stroke-miterlimit="10" stroke-dasharray=""/><path fill="none" stroke="rgb(0,0,0)" class="dcg-svg-major-gridline" paint-order="fill stroke markers" d=" M 0 299.5 L 400 299.5" stroke-opacity="0.2500000000000001" stroke-miterlimit="10" stroke-dasharray=""/><path fill="none" stroke="rgb(0,0,0)" class="dcg-svg-major-gridline" paint-order="fill stroke markers" d=" M 0 199.5 L 400 199.5" stroke-opacity="0.2500000000000001" stroke-miterlimit="10" stroke-dasharray=""/><path fill="none" stroke="rgb(0,0,0)" class="dcg-svg-major-gridline" paint-order="fill stroke markers" d=" M 0 99.5 L 400 99.5" stroke-opacity="0.2500000000000001" stroke-miterlimit="10" stroke-dasharray=""/><path fill="none" stroke="rgb(0,0,0)" class="dcg-svg-major-gridline" paint-order="fill stroke markers" d=" M 0 -0.5 L 400 -0.5" stroke-opacity="0.2500000000000001" stroke-miterlimit="10" stroke-dasharray=""/></g></g><g id="axis-c627511a"><g id="yaxis-c627511a"><title>Y axis</title><path fill="none" stroke="rgb(0,0,0)" class="dcg-svg-axis-line" paint-order="fill stroke markers" d=" M 0 0 L 0 400" stroke-opacity="0.9" stroke-miterlimit="10" stroke-width="1.5" stroke-dasharray=""/></g><g id="xaxis-c627511a"><title>X axis</title><path fill="none" stroke="rgb(0,0,0)" class="dcg-svg-axis-line" paint-order="fill stroke markers" d=" M 0 400 L 400 400" stroke-opacity="0.9" stroke-miterlimit="10" stroke-width="1.5" stroke-dasharray=""/></g><g><g class="dcg-svg-axis-value"><text fill="none" stroke="#ffffff" font-family="Arial" font-size="14px" font-style="normal" font-weight="normal" text-decoration="normal" x="-8.89306640625" y="415.808" text-anchor="middle" stroke-miterlimit="2" stroke-width="3" stroke-dasharray="">0</text><text fill="#000000" stroke="none" font-family="Arial" font-size="14px" font-style="normal" font-weight="normal" text-decoration="normal" x="-8.89306640625" y="415.808" text-anchor="middle">0</text></g><g class="dcg-svg-axis-value"><text fill="none" stroke="#ffffff" font-family="Arial" font-size="14px" font-style="normal" font-weight="normal" text-decoration="normal" x="100" y="393.808" text-anchor="middle" stroke-miterlimit="2" stroke-width="3" stroke-dasharray="">50</text><text fill="rgb(150,150,150)" stroke="none" font-family="Arial" font-size="14px" font-style="normal" font-weight="normal" text-decoration="normal" x="100" y="393.808" text-anchor="middle" fill-opacity="1">50</text></g><g class="dcg-svg-axis-value"><text fill="none" stroke="#ffffff" font-family="Arial" font-size="14px" font-style="normal" font-weight="normal" text-decoration="normal" x="200" y="393.808" text-anchor="middle" stroke-miterlimit="2" stroke-width="3" stroke-dasharray="">100</text><text fill="rgb(150,150,150)" stroke="none" font-family="Arial" font-size="14px" font-style="normal" font-weight="normal" text-decoration="normal" x="200" y="393.808" text-anchor="middle" fill-opacity="1">100</text></g><g class="dcg-svg-axis-value"><text fill="none" stroke="#ffffff" font-family="Arial" font-size="14px" font-style="normal" font-weight="normal" text-decoration="normal" x="300" y="393.808" text-anchor="middle" stroke-miterlimit="2" stroke-width="3" stroke-dasharray="">150</text><text fill="rgb(150,150,150)" stroke="none" font-family="Arial" font-size="14px" font-style="normal" font-weight="normal" text-decoration="normal" x="300" y="393.808" text-anchor="middle" fill-opacity="1">150</text></g><g class="dcg-svg-axis-value dcg-svg-offcenter-axis-value"><text fill="none" stroke="#ffffff" font-family="Arial" font-size="14px" font-style="normal" font-weight="normal" text-decoration="normal" x="385.32080078125" y="393.808" text-anchor="middle" stroke-miterlimit="2" stroke-width="3" stroke-dasharray="">200</text><text fill="rgb(150,150,150)" stroke="none" font-family="Arial" font-size="14px" font-style="normal" font-weight="normal" text-decoration="normal" x="385.32080078125" y="393.808" text-anchor="middle" fill-opacity="1">200</text></g><g class="dcg-svg-axis-value"><text fill="none" stroke="#ffffff" font-family="Arial" font-size="14px" font-style="normal" font-weight="normal" text-decoration="normal" x="6.89306640625" y="303.808" text-anchor="middle" stroke-miterlimit="2" stroke-width="3" stroke-dasharray="">5</text><text fill="rgb(150,150,150)" stroke="none" font-family="Arial" font-size="14px" font-style="normal" font-weight="normal" text-decoration="normal" x="6.89306640625" y="303.808" text-anchor="middle" fill-opacity="1">5</text></g><g class="dcg-svg-axis-value"><text fill="none" stroke="#ffffff" font-family="Arial" font-size="14px" font-style="normal" font-weight="normal" text-decoration="normal" x="10.7861328125" y="203.808" text-anchor="middle" stroke-miterlimit="2" stroke-width="3" stroke-dasharray="">10</text><text fill="rgb(150,150,150)" stroke="none" font-family="Arial" font-size="14px" font-style="normal" font-weight="normal" text-decoration="normal" x="10.7861328125" y="203.808" text-anchor="middle" fill-opacity="1">10</text></g><g class="dcg-svg-axis-value"><text fill="none" stroke="#ffffff" font-family="Arial" font-size="14px" font-style="normal" font-weight="normal" text-decoration="normal" x="10.7861328125" y="103.808" text-anchor="middle" stroke-miterlimit="2" stroke-width="3" stroke-dasharray="">15</text><text fill="rgb(150,150,150)" stroke="none" font-family="Arial" font-size="14px" font-style="normal" font-weight="normal" text-decoration="normal" x="10.7861328125" y="103.808" text-anchor="middle" fill-opacity="1">15</text></g><g class="dcg-svg-axis-value dcg-svg-offcenter-axis-value"><text fill="none" stroke="#ffffff" font-family="Arial" font-size="14px" font-style="normal" font-weight="normal" text-decoration="normal" x="10.7861328125" y="13.808" text-anchor="middle" stroke-miterlimit="2" stroke-width="3" stroke-dasharray="">20</text><text fill="rgb(150,150,150)" stroke="none" font-family="Arial" font-size="14px" font-style="normal" font-weight="normal" text-decoration="normal" x="10.7861328125" y="13.808" text-anchor="middle" fill-opacity="1">20</text></g></g></g></g><g id="expressions-c627511a"><g id="sketch-c627511a"><title>Expression 15</title><path fill="#2d70b3" stroke="none" paint-order="stroke fill markers" d="" fill-opacity="0.4"/><g><path fill="none" stroke="#2d70b3" class="dcg-svg-curve" paint-order="fill stroke markers" d=" M 29.136144675627847 -5.5 L 29.573230268510986 0.47402597402600577 M 29.573230268510986 0.47402597402600577 L 29.96068685293166 5.469027056524098 M 30.504948636409875 12.44783037009446 L 31.330756712774612 22.506134969325103 M 31.330756712774612 22.506134969325103 L 31.409463315940787 23.4105688266332 M 32.01633117125816 30.384212881657984 L 32.307160292921075 33.72619047619048 M 32.307160292921075 33.72619047619048 L 33.01031038838139 41.3391791487262 M 33.675956047080845 48.30743291245072 L 34.259967453213996 54.27528089887642 M 34.259967453213996 54.27528089887642 L 34.775172993732234 59.2523304106669 M 35.510349929635936 66.21359046228415 L 36.212774613506916 72.63829787234044 M 36.212774613506916 72.63829787234044 L 36.732476284237286 77.14544238530095 M 37.55240460494437 84.09722475127343 L 38.16558177379984 89.14646464646472 M 38.16558177379984 89.14646464646472 L 38.91667234030087 95.01223737351188 M 39.836638684371515 101.9514814072158 L 40.31366965012205 105.48086124401914 M 40.31366965012205 105.48086124401914 L 41.36281308349789 112.84503136188737 M 42.39967110312064 119.76780974371617 L 42.461757526444266 120.18181818181819 M 42.461757526444266 120.18181818181819 L 43.633441822620014 127.59734513274338 M 43.633441822620014 127.59734513274338 L 44.13864803207397 130.62938413967075 M 45.314096116297115 137.52992321064823 L 45.97681041497152 141.30672268907563 M 45.97681041497152 141.30672268907563 L 47.14849471114728 147.65573770491807 M 47.14849471114728 147.65573770491807 L 47.2837352580132 148.3519984172663 M 48.62872916306372 155.22152324982696 L 49.68714401952807 160.39494163424123 M 49.68714401952807 160.39494163424123 L 50.890440334034686 165.9863520618744 M 52.43906814253039 172.81284803548024 L 53.690398698128554 178.05855855855853 M 53.690398698128554 178.05855855855853 L 55.057130563783005 183.49654350637735 M 56.85613516144585 190.26130985249992 L 58.18185516680228 195.00748752079866 M 58.18185516680228 195.00748752079866 L 59.74410089503661 200.31037277147487 M 59.74410089503661 200.31037277147487 L 59.905526520581226 200.82979505338838 M 62.01185018740712 207.50519929082128 L 63.06387306753459 210.71351766513058 M 63.06387306753459 210.71351766513058 L 64.8213995117982 215.7929745889387 M 64.8213995117982 215.7929745889387 L 65.5936669571646 217.90488597403032 M 68.06491230245156 224.45383378605536 L 68.6293734743694 225.91242937853107 M 68.6293734743694 225.91242937853107 L 70.58218063466232 230.6813186813187 M 70.58218063466232 230.6813186813187 L 72.28460601927668 234.61118166768495 M 75.20634856512278 240.9717776768433 L 77.02644426362897 244.7141057934509 M 77.02644426362897 244.7141057934509 L 79.36981285598047 249.25550122249388 M 79.36981285598047 249.25550122249388 L 80.200152441772 250.7711458503155 M 83.64566310887706 256.8637855329676 L 84.34947111472742 258.0730724971231 M 84.34947111472742 258.0730724971231 L 86.98576078112286 262.33482142857144 M 86.98576078112286 262.33482142857144 L 89.5078653810094 266.1692939780832 M 93.55113730110801 271.88253562010067 L 95.67575264442637 274.7284263959391 M 95.67575264442637 274.7284263959391 L 98.89788445890969 278.77308447937133 M 98.89788445890969 278.77308447937133 L 100.37360721918225 280.5075424377592 M 105.0125491903165 285.748474188674 L 105.73270951993491 286.5404411764706 M 105.73270951993491 286.5404411764706 L 109.44304312449145 290.3525754884547 M 109.44304312449145 290.3525754884547 L 112.77070530784182 293.54282616956067 M 117.98729152309758 298.20912009627807 L 121.74572823433687 301.3370607028754 M 121.74572823433687 301.3370607028754 L 126.33482506102521 304.8887605850654 M 126.33482506102521 304.8887605850654 L 126.58432082032188 305.06810449954645 M 132.29645367172694 309.1130812316204 L 136.19650122050447 311.7142857142857 M 136.19650122050447 311.7142857142857 L 141.56614970305674 315.0322930877249 M 147.6506158115292 318.49289903621246 L 153.28356387306752 321.468253968254 M 153.28356387306752 321.468253968254 L 157.44575374710132 323.49526106340033 M 163.79913007926072 326.4317870233889 L 166.5626525630594 327.67066043249565 M 166.5626525630594 327.67066043249565 L 173.88567941415786 330.68701007838746 M 173.88567941415786 330.68701007838746 L 173.9339240292701 330.7052411029021 M 180.48199169172776 333.17967232802766 L 181.59926769731487 333.6018766756032 M 181.59926769731487 333.6018766756032 L 189.89869812855983 336.474358974359 M 189.89869812855983 336.474358974359 L 190.87422108505308 336.7828783171331 M 197.54839646968853 338.89365612048573 L 198.78397070789262 339.2844194022538 M 198.78397070789262 339.2844194022538 L 208.1079318377674 341.9739238602432 M 214.87742030370867 343.75533346659904 L 218.40968266883644 344.68287243532563 M 218.40968266883644 344.68287243532563 L 225.55720378976372 346.38752509464007 M 232.38092385132848 347.9467981289709 L 241.159886086249 349.84343434343435 M 241.159886086249 349.84343434343435 L 243.1409822372998 350.2301975418277 M 250.01128085791333 351.57146442936175 L 253.85313262815296 352.3214971209213 M 253.85313262815296 352.3214971209213 L 260.83154308388947 353.5494190895678 M 267.7259340422498 354.76067990489355 L 278.59086584798223 356.4791841547524 M 285.5122288015294 357.52400010815086 L 296.40327881146794 359.06835423885315 M 303.3434286730828 359.980498177764 L 314.2561661177896 361.3633074425921 M 321.20890892722264 362.1742056420582 L 332.13951449725533 363.407843300518 M 339.1004413179893 364.1451313632146 L 350.045640235244 365.2417719888196 M 357.011303907208 365.93408708990773 L 359.5 366.1666666666667" stroke-linecap="round" stroke-linejoin="round" stroke-miterlimit="10" stroke-width="2.5" stroke-opacity="0.6" stroke-dasharray=""/></g></g><g id="sketch-c627511a"><title>Expression 17</title><path fill="#2d70b3" stroke="none" paint-order="stroke fill markers" d="" fill-opacity="0.4"/><g><path fill="none" stroke="#2d70b3" class="dcg-svg-curve" paint-order="fill stroke markers" d=" M -0.490234375 266.16644060751423 L -0.39026639237070226 266.1639103014007 M 7.607172217973115 265.96148581231415 L 7.707140200602413 265.9589555062006 M 15.70457881094623 265.75653101711407 L 15.804546793575529 265.7540007110005 M 23.801985403919346 265.551576221914 L 23.901953386548644 265.54904591580043 M 31.89939199689246 265.34662142671385 L 31.99935997952176 265.3440911206003 M 39.99679858986558 265.1416666315137 L 40.09676657249487 265.13913632540016 M 48.09420518283869 264.9367118363136 L 48.19417316546799 264.9341815302 M 56.191611775811815 264.73175704111344 L 56.29157975844111 264.7292267349999 M 64.28837498280569 264.50366315564395 L 64.38832911143452 264.500634596572 M 72.3846594017405 264.2583498708154 L 72.48461353036933 264.25532131174344 M 80.48094382067532 264.0130365859868 L 80.58089794930414 264.0100080269149 M 88.57722823961014 263.76772330115824 L 88.67718236823896 263.7646947420863 M 96.67351265854495 263.5224100163297 L 96.77346678717377 263.51938145725774 M 104.76979707747977 263.2770967315011 L 104.86975120610859 263.27406817242917 M 112.86560086793799 263.01733117417353 L 112.9655353611064 263.01371218603174 M 120.96029481458022 262.72419313468805 L 121.06022930774864 262.72057414654626 M 129.05498876122246 262.43105509520257 L 129.1549232543909 262.42743610706077 M 137.1496827078647 262.1379170557171 L 137.24961720103315 262.1342980675753 M 145.24437665450696 261.84477901623166 L 145.3443111476754 261.84116002808986 M 153.3390280404493 261.5505693954656 L 153.43893476108818 261.54625115841935 M 161.43147241219754 261.2007921947216 L 161.5313791328364 261.1964739576754 M 169.52391678394577 260.85101499397757 L 169.62382350458464 260.84669675693135 M 177.616361155694 260.5012377932336 L 177.71626787633286 260.4969195561874 M 185.70880552744225 260.15146059248957 L 185.80871224808112 260.14714235544335 M 193.7994455565837 259.7636039816194 L 193.89931296963306 259.75845618492315 M 201.88870601358295 259.34663244922405 L 201.9885734266323 259.3414846525278 M 209.9779664705822 258.9296609168287 L 210.07783388363157 258.9245131201325 M 218.0672269275815 258.5126893844334 L 218.16709434063085 258.50754158773714 M 226.1528249166089 258.03088635204676 L 226.25263670159697 258.0247538503147 M 234.23757950064322 257.53415371175043 L 234.3373912856313 257.5280212100184 M 242.32233408467755 257.03742107145405 L 242.42214586966563 257.031288569722 M 250.40287330675284 256.47807889752636 L 250.50260632438167 256.47077648733216 M 258.4812477346892 255.88658367179397 L 258.58098075231806 255.87928126159974 M 266.5594974761385 255.29353509142834 L 266.6591183456447 255.284835530587 M 274.6287879061392 254.58887066327904 L 274.7284087756454 254.5801711024377 M 282.69807833613993 253.8842062351297 L 282.7976992056461 253.87550667428837 M 290.7571587794706 253.07295733596803 L 290.8566195420796 253.06258638127517 M 298.8134805507976 252.23291000584706 L 298.9129413134066 252.2225390511542 M 306.8525004308527 251.24170062241797 L 306.951732242009 251.22932937936622 M 314.8798600825884 250.16360290278226 L 314.9787623124071 250.14882626795278 M 322.8866751084149 248.94075842612517 L 322.9851005546547 248.9230826932551 M 330.85592544453414 247.49281271714574 L 330.95365779642475 247.4716375573132 M 338.75641068007064 245.71149354196515 L 338.85313431735045 245.68610578918222 M 346.5316774158845 243.45110623704986 L 346.62692355081475 243.4206402924422 M 353.9234465752506 240.17859671843573 L 354.0088564525972 240.12658563450512 M 359.2829719553622 234.38347586739272 L 359.3075913556741 234.28655381041764" stroke-linecap="round" stroke-linejoin="round" stroke-miterlimit="10" stroke-width="5" stroke-opacity="0.6" stroke-dasharray=""/></g></g><g id="sketch-c627511a"><title>Expression 19</title><path fill="#2d70b3" stroke="none" paint-order="stroke fill markers" d="" fill-opacity="0.4"/><g><path fill="none" stroke="#2d70b3" class="dcg-svg-curve" paint-order="fill stroke markers" d=" M 43.8576687191152 -5.5 L 43.8576687191152 -5.5 L 44.609845402766474 -0.9659010055594308 L 45.78152969894223 5.737684757120064 L 46.95321399511798 12.108582802119258 L 48.22253864930838 18.662787108856378 L 49.49186330349878 24.88230494660462 L 50.76118795768918 30.79198761184233 L 52.128152969894224 36.83546107116126 L 53.495117982099266 42.57090507570342 L 54.95972335231896 48.40006727745447 L 56.42432872253865 53.92703036473961 L 57.98657445077299 59.51492880646845 L 59.54882017900732 64.80961988595732 L 61.2087062652563 70.13884848183358 L 62.868592351505285 75.186219045955 L 64.62611879576892 80.24720482986658 L 66.4812855980472 85.29809792397805 L 68.33645240032547 90.07359212653387 L 70.28925956061839 94.82667530637099 L 72.33970707892595 99.53949934469455 L 74.48779495524816 104.19640070490112 L 76.73352318958503 108.78380685135602 L 79.07689178193654 113.29011885211423 L 81.51790073230268 117.70557745395627 L 84.05655004068349 122.02211893604016 L 86.69283970707893 126.23322603960253 L 89.42676973148902 130.3337782915906 L 92.3559804719284 134.45291082230284 L 95.38283157038242 138.43813572046156 L 98.5073230268511 142.28917388120578 L 101.82709519934906 146.11537341270713 L 105.34214808787632 149.89634939789156 L 108.95484133441822 153.5201115496275 L 112.76281529698942 157.07954885837694 L 116.76606997558991 160.56138039906367 L 121.06224572823433 164.03059910035049 L 125.55370219690806 167.3912118102374 L 130.24043938161105 170.6372140475676 L 135.220097640358 173.82428468747293 L 140.49267697314892 176.93538830730768 L 146.05817737998373 179.9563854960511 L 151.91659886086248 182.87575069441942 L 158.16558177379983 185.72687924628778 L 164.80512611879576 188.4913241028353 L 171.83523189585028 191.15370843012408 L 179.2558991049634 193.7013351537027 L 187.16476810414974 196.15247949746578 L 195.5618388934093 198.48957890055942 L 204.44711147274208 200.697447498796 L 213.8205858421481 202.762624864486 L 223.68226200162735 204.67261920131605 L 234.03213995117983 206.41500560033694 L 244.87021969080556 207.97629337654806 L 256.00122050447516 209.31910543700553 L 267.4251423921888 210.4360767129764 L 278.8490642799024 211.29366679267275 L 290.07770545158667 211.87883987170076 L 300.8181448331977 212.18277317486724 L 310.87510170870627 212.2111376368801 L 319.9556550040684 211.98181902774098 L 327.96216436126934 211.5250516447926 L 334.7969894222946 210.88267156015002 L 340.5577705451587 210.08767239497877 L 345.2445077298617 209.19011899678975 L 349.0524816924329 208.20762596663585 L 351.98169243287225 207.2067725538496 L 354.2274206672091 206.20160545416388 L 355.98494711147276 205.16646638543313 L 357.25427176566313 204.17078079645574 L 358.13303498779493 203.24255287536332 L 358.71887713588285 202.39469956561072 L 359.1094385679414 201.58962519442633 L 359.3047192839707 200.9992672594141 L 359.40235964198536 200.5710919141443 L 359.5 199.5" stroke-linecap="round" stroke-linejoin="round" stroke-miterlimit="10" stroke-width="2.5" stroke-opacity="0.9" stroke-dasharray=""/></g></g></g><g id="labels-c627511a"/></g></svg>