<svg version="1.1" xmlns="http://www.w3.org/2000/svg" xmlns:xlink="http://www.w3.org/1999/xlink" width="800" height="800"><defs/><g transform="scale(2,2)"><g id="background-4f8ec474"><rect fill="white" stroke="none" x="0" y="0" width="400" height="400" class="dcg-svg-background"/></g><g id="background-images-4f8ec474"/><g id="graphpaper-4f8ec474"><g id="grid-4f8ec474"><g><path fill="none" stroke="rgb(0,0,0)" class="dcg-svg-minor-gridline" paint-order="fill stroke markers" d=" M 19.5 0 L 19.5 400" stroke-opacity="0.2" stroke-miterlimit="10" stroke-dasharray=""/><path fill="none" stroke="rgb(0,0,0)" class="dcg-svg-minor-gridline" paint-order="fill stroke markers" d=" M 39.5 0 L 39.5 400" stroke-opacity="0.2" stroke-miterlimit="10" stroke-dasharray=""/><path fill="none" stroke="rgb(0,0,0)" class="dcg-svg-minor-gridline" paint-order="fill stroke markers" d=" M 59.5 0 L 59.5 400" stroke-opacity="0.2" stroke-miterlimit="10" stroke-dasharray=""/><path fill="none" stroke="rgb(0,0,0)" class="dcg-svg-minor-gridline" paint-order="fill stroke markers" d=" M 79.5 0 L 79.5 400" stroke-opacity="0.2" stroke-miterlimit="10" stroke-dasharray=""/><path fill="none" stroke="rgb(0,0,0)" class="dcg-svg-minor-gridline" paint-order="fill stroke markers" d=" M 99.5 0 L 99.5 400" stroke-opacity="0.2" stroke-miterlimit="10" stroke-dasharray=""/><path fill="none" stroke="rgb(0,0,0)" class="dcg-svg-minor-gridline" paint-order="fill stroke markers" d=" M 119.5 0 L 119.5 400" stroke-opacity="0.2" stroke-miterlimit="10" stroke-dasharray=""/><path fill="none" stroke="rgb(0,0,0)" class="dcg-svg-minor-gridline" paint-order="fill stroke markers" d=" M 139.5 0 L 139.5 400" stroke-opacity="0.2" stroke-miterlimit="10" stroke-dasharray=""/><path fill="none" stroke="rgb(0,0,0)" class="dcg-svg-minor-gridline" paint-order="fill stroke markers" d=" M 159.5 0 L 159.5 400" stroke-opacity="0.2" stroke-miterlimit="10" stroke-dasharray=""/><path fill="none" stroke="rgb(0,0,0)" class="dcg-svg-minor-gridline" paint-order="fill stroke markers" d=" M 179.5 0 L 179.5 400" stroke-opacity="0.2" stroke-miterlimit="10" stroke-dasharray=""/><path fill="none" stroke="rgb(0,0,0)" class="dcg-svg-minor-gridline" paint-order="fill stroke markers" d=" M 199.5 0 L 199.5 400" stroke-opacity="0.2" stroke-miterlimit="10" stroke-dasharray=""/><path fill="none" stroke="rgb(0,0,0)" class="dcg-svg-minor-gridline" paint-order="fill stroke markers" d=" M 219.5 0 L 219.5 400" stroke-opacity="0.2" stroke-miterlimit="10" stroke-dasharray=""/><path fill="none" stroke="rgb(0,0,0)" class="dcg-svg-minor-gridline" paint-order="fill stroke markers" d=" M 239.5 0 L 239.5 400" stroke-opacity="0.2" stroke-miterlimit="10" stroke-dasharray=""/><path fill="none" stroke="rgb(0,0,0)" class="dcg-svg-minor-gridline" paint-order="fill stroke markers" d=" M 259.5 0 L 259.5 400" stroke-opacity="0.2" stroke-miterlimit="10" stroke-dasharray=""/><path fill="none" stroke="rgb(0,0,0)" class="dcg-svg-minor-gridline" paint-order="fill stroke markers" d=" M 279.5 0 L 279.5 400" stroke-opacity="0.2" stroke-miterlimit="10" stroke-dasharray=""/><path fill="none" stroke="rgb(0,0,0)" class="dcg-svg-minor-gridline" paint-order="fill stroke markers" d=" M 299.5 0 L 299.5 400" stroke-opacity="0.2" stroke-miterlimit="10" stroke-dasharray=""/><path fill="none" stroke="rgb(0,0,0)" class="dcg-svg-minor-gridline" paint-order="fill stroke markers" d=" M 319.5 0 L 319.5 400" stroke-opacity="0.2" stroke-miterlimit="10" stroke-dasharray=""/><path fill="none" stroke="rgb(0,0,0)" class="dcg-svg-minor-gridline" paint-order="fill stroke markers" d=" M 339.5 0 L 339.5 400" stroke-opacity="0.2" stroke-miterlimit="10" stroke-dasharray=""/><path fill="none" stroke="rgb(0,0,0)" class="dcg-svg-minor-gridline" paint-order="fill stroke markers" d=" M 359.5 0 L 359.5 400" stroke-opacity="0.2" stroke-miterlimit="10" stroke-dasharray=""/><path fill="none" stroke="rgb(0,0,0)" class="dcg-svg-minor-gridline" paint-order="fill stroke markers" d=" M 379.5 0 L 379.5 400" stroke-opacity="0.2" stroke-miterlimit="10" stroke-dasharray=""/><path fill="none" stroke="rgb(0,0,0)" class="dcg-svg-minor-gridline" paint-order="fill stroke markers" d=" M 0 379.5 L 400 379.5" stroke-opacity="0.2" stroke-miterlimit="10" stroke-dasharray=""/><path fill="none" stroke="rgb(0,0,0)" class="dcg-svg-minor-gridline" paint-order="fill stroke markers" d=" M 0 359.5 L 400 359.5" stroke-opacity="0.2" stroke-miterlimit="10" stroke-dasharray=""/><path fill="none" stroke="rgb(0,0,0)" class="dcg-svg-minor-gridline" paint-order="fill stroke markers" d=" M 0 339.5 L 400 339.5" stroke-opacity="0.2" stroke-miterlimit="10" stroke-dasharray=""/><path fill="none" stroke="rgb(0,0,0)" class="dcg-svg-minor-gridline" paint-order="fill stroke markers" d=" M 0 319.5 L 400 319.5" stroke-opacity="0.2" stroke-miterlimit="10" stroke-dasharray=""/><path fill="none" stroke="rgb(0,0,0)" class="dcg-svg-minor-gridline" paint-order="fill stroke markers" d=" M 0 299.5 L 400 299.5" stroke-opacity="0.2" stroke-miterlimit="10" stroke-dasharray=""/><path fill="none" stroke="rgb(0,0,0)" class="dcg-svg-minor-gridline" paint-order="fill stroke markers" d=" M 0 279.5 L 400 279.5" stroke-opacity="0.2" stroke-miterlimit="10" stroke-dasharray=""/><path fill="none" stroke="rgb(0,0,0)" class="dcg-svg-minor-gridline" paint-order="fill stroke markers" d=" M 0 259.5 L 400 259.5" stroke-opacity="0.2" stroke-miterlimit="10" stroke-dasharray=""/><path fill="none" stroke="rgb(0,0,0)" class="dcg-svg-minor-gridline" paint-order="fill stroke markers" d=" M 0 239.5 L 400 239.5" stroke-opacity="0.2" stroke-miterlimit="10" stroke-dasharray=""/><path fill="none" stroke="rgb(0,0,0)" class="dcg-svg-minor-gridline" paint-order="fill stroke markers" d=" M 0 219.5 L 400 219.5" stroke-opacity="0.2" stroke-miterlimit="10" stroke-dasharray=""/><path fill="none" stroke="rgb(0,0,0)" class="dcg-svg-minor-gridline" paint-order="fill stroke markers" d=" M 0 199.5 L 400 199.5" stroke-opacity="0.2" stroke-miterlimit="10" stroke-dasharray=""/><path fill="none" stroke="rgb(0,0,0)" class="dcg-svg-minor-gridline" paint-order="fill stroke markers" d=" M 0 179.5 L 400 179.5" stroke-opacity="0.2" stroke-miterlimit="10" stroke-dasharray=""/><path fill="none" stroke="rgb(0,0,0)" class="dcg-svg-minor-gridline" paint-order="fill stroke markers" d=" M 0 159.5 L 400 159.5" stroke-opacity="0.2" stroke-miterlimit="10" stroke-dasharray=""/><path fill="none" stroke="rgb(0,0,0)" class="dcg-svg-minor-gridline" paint-order="fill stroke markers" d=" M 0 139.5 L 400 139.5" stroke-opacity="0.2" stroke-miterlimit="10" stroke-dasharray=""/><path fill="none" stroke="rgb(0,0,0)" class="dcg-svg-minor-gridline" paint-order="fill stroke markers" d=" M 0 119.5 L 400 119.5" stroke-opacity="0.2" stroke-miterlimit="10" stroke-dasharray=""/><path fill="none" stroke="rgb(0,0,0)" class="dcg-svg-minor-gridline" paint-order="fill stroke markers" d=" M 0 99.5 L 400 99.5" stroke-opacity="0.2" stroke-miterlimit="10" stroke-dasharray=""/><path fill="none" stroke="rgb(0,0,0)" class="dcg-svg-minor-gridline" paint-order="fill stroke markers" d=" M 0 79.5 L 400 79.5" stroke-opacity="0.2" stroke-miterlimit="10" stroke-dasharray=""/><path fill="none" stroke="rgb(0,0,0)" class="dcg-svg-minor-gridline" paint-order="fill stroke markers" d=" M 0 59.5 L 400 59.5" stroke-opacity="0.2" stroke-miterlimit="10" stroke-dasharray=""/><path fill="none" stroke="rgb(0,0,0)" class="dcg-svg-minor-gridline" paint-order="fill stroke markers" d=" M 0 39.5 L 400 39.5" stroke-opacity="0.2" stroke-miterlimit="10" stroke-dasharray=""/><path fill="none" stroke="rgb(0,0,0)" class="dcg-svg-minor-gridline" paint-order="fill stroke markers" d=" M 0 19.5 L 400 19.5" stroke-opacity="0.2" stroke-miterlimit="10" stroke-dasharray=""/><path fill="none" stroke="rgb(0,0,0)" class="dcg-svg-minor-gridline" paint-order="fill stroke markers" d=" M 0 -0.5 L 400 -0.5" stroke-opacity="0.2" stroke-miterlimit="10" stroke-dasharray=""/><path fill="none" stroke="rgb(0,0,0)" class="dcg-svg-major-gridline" paint-order="fill stroke markers" d=" M 99.5 0 L 99.5 400" stroke-opacity="0.2500000000000001" stroke-miterlimit="10" stroke-dasharray=""/><path fill="none" stroke="rgb(0,0,0)" class="dcg-svg-major-gridline" paint-order="fill stroke markers" d=" M 199.5 0 L 199.5 400" stroke-opacity="0.2500000000000001" stroke-miterlimit="10" stroke-dasharray=""/><path fill="none" stroke="rgb(0,0,0)" class="dcg-svg-major-gridline" paint-order="fill stroke markers" d=" M 299.5 0 L 299.5 400" stroke-opacity="0.2500000000000001" stroke-miterlimit="10" stroke-dasharray=""/><path fill="none" stroke="rgb(0,0,0)" class="dcg-svg-major-gridline" paint-order="fill stroke markers" d=" M 0 299.5 L 400 299.5" stroke-opacity="0.2500000000000001" stroke-miterlimit="10" stroke-dasharray=""/><path fill="none" stroke="rgb(0,0,0)" class="dcg-svg-major-gridline" paint-order="fill stroke markers" d=" M 0 199.5 L 400 199.5" stroke-opacity="0.2500000000000001" stroke-miterlimit="10" stroke-dasharray=""/><path fill="none" stroke="rgb(0,0,0)" class="dcg-svg-major-gridline" paint-order="fill stroke markers" d=" M 0 99.5 L 400 99.5" stroke-opacity="0.2500000000000001" stroke-miterlimit="10" stroke-dasharray=""/><path fill="none" stroke="rgb(0,0,0)" class="dcg-svg-major-gridline" paint-order="fill stroke markers" d=" M 0 -0.5 L 400 -0.5" stroke-opacity="0.2500000000000001" stroke-miterlimit="10" stroke-dasharray=""/></g></g><g id="axis-4f8ec474"><g id="yaxis-4f8ec474"><title>Y axis</title><path fill="none" stroke="rgb(0,0,0)" class="dcg-svg-axis-line" paint-order="fill stroke markers" d=" M 0 0 L 0 400" stroke-opacity="0.9" stroke-miterlimit="10" stroke-width="1.5" stroke-dasharray=""/></g><g id="xaxis-4f8ec474"><title>X axis</title><path fill="none" stroke="rgb(0,0,0)" class="dcg-svg-axis-line" paint-order="fill stroke markers" d=" M 0 400 L 400 400" stroke-opacity="0.9" stroke-miterlimit="10" stroke-width="1.5" stroke-dasharray=""/></g><g><g class="dcg-svg-axis-value"><text fill="none" stroke="#ffffff" font-family="Arial" font-size="14px" font-style="normal" font-weight="normal" text-decoration="normal" x="-8.89306640625" y="415.808" text-anchor="middle" stroke-miterlimit="2" stroke-width="3" stroke-dasharray="">0</text><text fill="#000000" stroke="none" font-family="Arial" font-size="14px" font-style="normal" font-weight="normal" text-decoration="normal" x="-8.89306640625" y="415.808" text-anchor="middle">0</text></g><g class="dcg-svg-axis-value"><text fill="none" stroke="#ffffff" font-family="Arial" font-size="14px" font-style="normal" font-weight="normal" text-decoration="normal" x="100" y="393.808" text-anchor="middle" stroke-miterlimit="2" stroke-width="3" stroke-dasharray="">50</text><text fill="rgb(150,150,150)" stroke="none" font-family="Arial" font-size="14px" font-style="normal" font-weight="normal" text-decoration="normal" x="100" y="393.808" text-anchor="middle" fill-opacity="1">50</text></g><g class="dcg-svg-axis-value"><text fill="none" stroke="#ffffff" font-family="Arial" font-size="14px" font-style="normal" font-weight="normal" text-decoration="normal" x="200" y="393.808" text-anchor="middle" stroke-miterlimit="2" stroke-width="3" stroke-dasharray="">100</text><text fill="rgb(150,150,150)" stroke="none" font-family="Arial" font-size="14px" font-style="normal" font-weight="normal" text-decoration="normal" x="200" y="393.808" text-anchor="middle" fill-opacity="1">100</text></g><g class="dcg-svg-axis-value"><text fill="none" stroke="#ffffff" font-family="Arial" font-size="14px" font-style="normal" font-weight="normal" text-decoration="normal" x="300" y="393.808" text-anchor="middle" stroke-miterlimit="2" stroke-width="3" stroke-dasharray="">150</text><text fill="rgb(150,150,150)" stroke="none" font-family="Arial" font-size="14px" font-style="normal" font-weight="normal" text-decoration="normal" x="300" y="393.808" text-anchor="middle" fill-opacity="1">150</text></g><g class="dcg-svg-axis-value dcg-svg-offcenter-axis-value"><text fill="none" stroke="#ffffff" font-family="Arial" font-size="14px" font-style="normal" font-weight="normal" text-decoration="normal" x="385.32080078125" y="393.808" text-anchor="middle" stroke-miterlimit="2" stroke-width="3" stroke-dasharray="">200</text><text fill="rgb(150,150,150)" stroke="none" font-family="Arial" font-size="14px" font-style="normal" font-weight="normal" text-decoration="normal" x="385.32080078125" y="393.808" text-anchor="middle" fill-opacity="1">200</text></g><g class="dcg-svg-axis-value"><text fill="none" stroke="#ffffff" font-family="Arial" font-size="14px" font-style="normal" font-weight="normal" text-decoration="normal" x="14.67919921875" y="303.808" text-anchor="middle" stroke-miterlimit="2" stroke-width="3" stroke-dasharray="">500</text><text fill="rgb(150,150,150)" stroke="none" font-family="Arial" font-size="14px" font-style="normal" font-weight="normal" text-decoration="normal" x="14.67919921875" y="303.808" text-anchor="middle" fill-opacity="1">500</text></g><g class="dcg-svg-axis-value"><text fill="none" stroke="#ffffff" font-family="Arial" font-size="14px" font-style="normal" font-weight="normal" text-decoration="normal" x="18.572265625" y="203.808" text-anchor="middle" stroke-miterlimit="2" stroke-width="3" stroke-dasharray="">1000</text><text fill="rgb(150,150,150)" stroke="none" font-family="Arial" font-size="14px" font-style="normal" font-weight="normal" text-decoration="normal" x="18.572265625" y="203.808" text-anchor="middle" fill-opacity="1">1000</text></g><g class="dcg-svg-axis-value"><text fill="none" stroke="#ffffff" font-family="Arial" font-size="14px" font-style="normal" font-weight="normal" text-decoration="normal" x="18.572265625" y="103.808" text-anchor="middle" stroke-miterlimit="2" stroke-width="3" stroke-dasharray="">1500</text><text fill="rgb(150,150,150)" stroke="none" font-family="Arial" font-size="14px" font-style="normal" font-weight="normal" text-decoration="normal" x="18.572265625" y="103.808" text-anchor="middle" fill-opacity="1">1500</text></g><g class="dcg-svg-axis-value dcg-svg-offcenter-axis-value"><text fill="none" stroke="#ffffff" font-family="Arial" font-size="14px" font-style="normal" font-weight="normal" text-decoration="normal" x="18.572265625" y="13.808" text-anchor="middle" stroke-miterlimit="2" stroke-width="3" stroke-dasharray="">2000</text><text fill="rgb(150,150,150)" stroke="none" font-family="Arial" font-size="14px" font-style="normal" font-weight="normal" text-decoration="normal" x="18.572265625" y="13.808" text-anchor="middle" fill-opacity="1">2000</text></g></g></g></g><g id="expressions-4f8ec474"><g id="sketch-4f8ec474"><title>Expression 8</title><path fill="#2d70b3" stroke="none" paint-order="stroke fill markers" d="" fill-opacity="0.4"/><g><path fill="none" stroke="#2d70b3" class="dcg-svg-curve" paint-order="fill stroke markers" d=" M -0.5 339.5 L 10.5 339.5 M 17.5 339.5 L 28.5 339.5 M 35.5 339.5 L 46.5 339.5 M 53.5 339.5 L 64.5 339.5 M 71.5 339.5 L 82.5 339.5 M 89.5 339.5 L 100.5 339.5 M 107.5 339.5 L 118.5 339.5 M 125.5 339.5 L 136.5 339.5 M 143.5 339.5 L 154.5 339.5 M 161.5 339.5 L 172.5 339.5 M 179.5 339.5 L 190.5 339.5 M 197.5 339.5 L 208.5 339.5 M 215.5 339.5 L 226.5 339.5 M 233.5 339.5 L 244.5 339.5 M 251.5 339.5 L 262.5 339.5 M 269.5 339.5 L 280.5 339.5 M 287.5 339.5 L 298.5 339.5 M 305.5 339.5 L 316.5 339.5 M 323.5 339.5 L 334.5 339.5 M 341.5 339.5 L 352.5 339.5 M 359.5 339.5 L 359.5 339.5" stroke-linecap="round" stroke-linejoin="round" stroke-miterlimit="10" stroke-width="2.5" stroke-opacity="0.6" stroke-dasharray=""/></g></g><g id="sketch-4f8ec474"><title>Expression 9</title><path fill="#2d70b3" stroke="none" paint-order="stroke fill markers" d="" fill-opacity="0.4"/><g><path fill="none" stroke="#2d70b3" class="dcg-svg-curve" paint-order="fill stroke markers" d=" M -0.5 399.5 L -0.41690360673244736 399.444367370852 M 6.230807854671764 394.99375703900813 L 6.313904247939317 394.9381244098601 M 12.961615709343528 390.48751407801626 L 13.044712102611081 390.43188144886824 M 19.692423564015293 385.9812711170244 L 19.775519957282846 385.92563848787637 M 26.414237202895507 381.46165272765063 L 26.497106720989795 381.4056827091513 M 33.12666816853284 376.9280812292012 L 33.20953768662713 376.87211121070186 M 39.83909913417017 372.3945097307518 L 39.921968652264454 372.33853971225244 M 46.54873323080708 367.85681620292274 L 46.63136263730882 367.800492307628 M 53.24171515744777 363.29458068405035 L 53.32434456394951 363.2382567887556 M 59.93469708408847 358.73234516517795 L 60.01732649059021 358.6760212698832 M 66.62767901072917 354.17010964630555 L 66.7103084172309 354.1137857510108 M 73.30138874605201 349.5797374788197 L 73.38376350455206 349.52304180736184 M 79.97374418455671 344.9873880907334 L 80.05611894305676 344.93069241927554 M 86.64609962306142 340.3950387026471 L 86.72847438156147 340.33834303118925 M 93.29929391118513 335.7749905337974 L 93.38139860429665 335.71790446396363 M 99.94977405321828 331.15101887726416 L 100.0318787463298 331.0939328074304 M 106.60025419525142 326.52704722073094 L 106.68235888836294 326.4699611508972 M 113.22854479442329 321.87133118089525 L 113.31036241412599 321.8138344235416 M 119.85577199034246 317.21409383525037 L 119.93758961004517 317.1565970778967 M 126.47880565327378 312.55092251564946 L 126.56031817632947 312.49299403746215 M 133.08132002078537 307.85871578247975 L 133.16283254384106 307.80078730429244 M 139.683834388297 303.1665090493101 L 139.76534691135268 303.1085805711228 M 146.27258883696823 298.45505456378487 L 146.35377628548994 298.39667136241206 M 152.8487721672265 293.7260152525893 L 152.92995961574823 293.6676320512165 M 159.4249554974848 288.99697594139377 L 159.43490642799026 288.9898200670545 M 159.43490642799026 288.9898200670545 L 159.50583817442185 288.93817156385984 M 165.97304647975128 284.22911467999467 L 166.0538865835679 284.17025146894633 M 172.52109488889732 279.46119458508116 L 172.60193499271395 279.4023313740328 M 179.05117361639245 274.6687578302375 L 179.13164258600943 274.60938826792835 M 185.56916015536933 269.85982328319733 L 185.64962912498632 269.8004537208882 M 192.0768097844791 265.03697555974657 L 192.15688091727733 264.9770705207898 M 198.562571541136 260.18466740425123 L 198.64264267393423 260.1247623652945 M 205.043031611246 255.32532511466798 L 205.122674714992 255.26485217836006 M 211.49412301467262 250.42701727372585 L 211.57376611841863 250.36654433741793 M 217.94168836578052 245.52410197104 L 218.02087077898977 245.4630270544346 M 224.35546383573006 240.57703372600096 L 224.43464624893932 240.51595880939556 M 230.76338073278384 235.62243304766974 L 230.84206733719563 235.5607206640977 M 237.1369956901374 230.6237299783328 L 237.2156822945492 230.56201759476073 M 243.49726417820983 225.60815990827265 L 243.575415016831 225.5457704346188 M 249.82748210652449 220.55461254230846 L 249.90563294514564 220.4922230686546 M 256.1311006000987 215.46806085055772 L 256.20866978485446 215.4049496663165 M 262.4142045653141 210.35605492701904 L 262.49177375006985 210.29294374277782 M 268.65036331845323 205.1869320486819 L 268.72730069538994 205.12305216115777 M 274.86193563363787 199.98840971558337 L 274.93818679969405 199.92371226837662 M 281.038280084189 194.74791649183564 L 281.1145312502452 194.68321904462888 M 287.1592884083114 189.44296041421075 L 287.23479033409563 189.37739015263685 M 293.23926358854624 184.09119412337157 L 293.3139478911366 184.02469408617915 M 299.2695141053244 178.68344130491437 L 299.3433004390969 178.6159462906658 M 305.24180426491273 173.2116018524794 L 305.31459761403937 173.1430370778285 M 311.13806554417 167.65785510575685 L 311.21085889329663 167.58929033110596 M 316.95231618236596 162.01840398780107 L 317.0240192996001 161.94869987760012 M 322.67378200720447 156.28491557700153 L 322.74428050414315 156.21399335249194 M 328.2844499109448 150.44296545220968 L 328.35211409647536 150.36933422244618 M 333.74239769263227 144.45830717448155 L 333.80838316042474 144.38316785028834 M 339.0288066148587 138.32199455304556 L 339.09290679649365 138.24524061689655 M 344.1052983590178 132.01106689426962 L 344.16489360843883 131.93076492513782 M 348.84332363990666 125.44272941502388 L 348.9001655340247 125.36045548796875 M 353.1435623635339 118.58215369437664 L 353.19359393759004 118.49556939096395 M 356.75317700786354 111.33775022455366 L 356.7890476605391 111.24440518571052 M 359.104366191267 103.60360011093347 L 359.1206874030927 103.50494101077267" stroke-linecap="round" stroke-linejoin="round" stroke-miterlimit="10" stroke-width="5" stroke-opacity="0.6" stroke-dasharray=""/></g></g><g id="sketch-4f8ec474"><title>Expression 10</title><path fill="#2d70b3" stroke="none" paint-order="stroke fill markers" d="" fill-opacity="0.4"/><g><path fill="none" stroke="#2d70b3" class="dcg-svg-curve" paint-order="fill stroke markers" d=" M -0.5 339.5 L -0.5 339.5 L 23.128966639544345 323.68052232451504 L 45.586248982912934 308.51288846939934 L 67.06712774613507 293.8705617539958 L 87.4739625711961 279.82524952724646 L 106.90439381611066 266.31558384418554 L 125.35842148087876 253.34714557020527 L 142.8360455655004 240.92632815961355 L 159.43490642799026 228.98982006705447 L 175.15500406834826 217.54333025052 L 189.99633848657447 206.5934755091527 L 204.05655004068348 196.0743596748456 L 217.33563873067533 185.9915596983636 L 229.83360455655003 176.35163853890734 L 241.55044751830755 167.16234497979417 L 252.5838079739626 158.3541790841132 L 262.93368592351504 149.93339889665685 L 272.600081366965 141.90754360659332 L 281.5829943043125 134.28573838595275 L 289.980065093572 126.99323395792732 L 297.69365337672906 120.12493781100574 L 304.9190398698129 113.51561682473812 L 311.5585842148088 107.26176441567628 L 317.6122864117168 101.37683303007299 L 323.1777868185517 95.77788147079406 L 328.2550854353133 90.47491946798846 L 332.84418226200165 85.48112784538694 L 337.0427176566314 80.7001492040597 L 340.7530512611879 76.25737382789225 L 344.0728234336859 72.05482542329486 L 347.0020341741253 68.1078431932599 L 349.63832384052074 64.29203256494543 L 351.8840520748576 60.761853674706686 L 353.83685923515054 57.38233882107852 L 355.39910496338484 54.35809372924757 L 356.66842961757527 51.55828561625293 L 357.74247355573635 48.76333582725283 L 358.52359641985356 46.23769322585076 L 359.0117982099268 44.163158668242204 L 359.3047192839707 42.39249789305495 L 359.40235964198536 41.52508289448457 L 359.5 39.5" stroke-linecap="round" stroke-linejoin="round" stroke-miterlimit="10" stroke-width="2.5" stroke-opacity="0.9" stroke-dasharray=""/></g></g></g><g id="labels-4f8ec474"/></g></svg>