<svg version="1.1" xmlns="http://www.w3.org/2000/svg" xmlns:xlink="http://www.w3.org/1999/xlink" width="800" height="800"><defs/><g transform="scale(2,2)"><g id="background-e6bdfca7"><rect fill="white" stroke="none" x="0" y="0" width="400" height="400" class="dcg-svg-background"/></g><g id="background-images-e6bdfca7"/><g id="graphpaper-e6bdfca7"><g id="grid-e6bdfca7"><g><path fill="none" stroke="rgb(0,0,0)" class="dcg-svg-minor-gridline" paint-order="fill stroke markers" d=" M 19.5 0 L 19.5 400" stroke-opacity="0.2" stroke-miterlimit="10" stroke-dasharray=""/><path fill="none" stroke="rgb(0,0,0)" class="dcg-svg-minor-gridline" paint-order="fill stroke markers" d=" M 39.5 0 L 39.5 400" stroke-opacity="0.2" stroke-miterlimit="10" stroke-dasharray=""/><path fill="none" stroke="rgb(0,0,0)" class="dcg-svg-minor-gridline" paint-order="fill stroke markers" d=" M 59.5 0 L 59.5 400" stroke-opacity="0.2" stroke-miterlimit="10" stroke-dasharray=""/><path fill="none" stroke="rgb(0,0,0)" class="dcg-svg-minor-gridline" paint-order="fill stroke markers" d=" M 79.5 0 L 79.5 400" stroke-opacity="0.2" stroke-miterlimit="10" stroke-dasharray=""/><path fill="none" stroke="rgb(0,0,0)" class="dcg-svg-minor-gridline" paint-order="fill stroke markers" d=" M 99.5 0 L 99.5 400" stroke-opacity="0.2" stroke-miterlimit="10" stroke-dasharray=""/><path fill="none" stroke="rgb(0,0,0)" class="dcg-svg-minor-gridline" paint-order="fill stroke markers" d=" M 119.5 0 L 119.5 400" stroke-opacity="0.2" stroke-miterlimit="10" stroke-dasharray=""/><path fill="none" stroke="rgb(0,0,0)" class="dcg-svg-minor-gridline" paint-order="fill stroke markers" d=" M 139.5 0 L 139.5 400" stroke-opacity="0.2" stroke-miterlimit="10" stroke-dasharray=""/><path fill="none" stroke="rgb(0,0,0)" class="dcg-svg-minor-gridline" paint-order="fill stroke markers" d=" M 159.5 0 L 159.5 400" stroke-opacity="0.2" stroke-miterlimit="10" stroke-dasharray=""/><path fill="none" stroke="rgb(0,0,0)" class="dcg-svg-minor-gridline" paint-order="fill stroke markers" d=" M 179.5 0 L 179.5 400" stroke-opacity="0.2" stroke-miterlimit="10" stroke-dasharray=""/><path fill="none" stroke="rgb(0,0,0)" class="dcg-svg-minor-gridline" paint-order="fill stroke markers" d=" M 199.5 0 L 199.5 400" stroke-opacity="0.2" stroke-miterlimit="10" stroke-dasharray=""/><path fill="none" stroke="rgb(0,0,0)" class="dcg-svg-minor-gridline" paint-order="fill stroke markers" d=" M 219.5 0 L 219.5 400" stroke-opacity="0.2" stroke-miterlimit="10" stroke-dasharray=""/><path fill="none" stroke="rgb(0,0,0)" class="dcg-svg-minor-gridline" paint-order="fill stroke markers" d=" M 239.5 0 L 239.5 400" stroke-opacity="0.2" stroke-miterlimit="10" stroke-dasharray=""/><path fill="none" stroke="rgb(0,0,0)" class="dcg-svg-minor-gridline" paint-order="fill stroke markers" d=" M 259.5 0 L 259.5 400" stroke-opacity="0.2" stroke-miterlimit="10" stroke-dasharray=""/><path fill="none" stroke="rgb(0,0,0)" class="dcg-svg-minor-gridline" paint-order="fill stroke markers" d=" M 279.5 0 L 279.5 400" stroke-opacity="0.2" stroke-miterlimit="10" stroke-dasharray=""/><path fill="none" stroke="rgb(0,0,0)" class="dcg-svg-minor-gridline" paint-order="fill stroke markers" d=" M 299.5 0 L 299.5 400" stroke-opacity="0.2" stroke-miterlimit="10" stroke-dasharray=""/><path fill="none" stroke="rgb(0,0,0)" class="dcg-svg-minor-gridline" paint-order="fill stroke markers" d=" M 319.5 0 L 319.5 400" stroke-opacity="0.2" stroke-miterlimit="10" stroke-dasharray=""/><path fill="none" stroke="rgb(0,0,0)" class="dcg-svg-minor-gridline" paint-order="fill stroke markers" d=" M 339.5 0 L 339.5 400" stroke-opacity="0.2" stroke-miterlimit="10" stroke-dasharray=""/><path fill="none" stroke="rgb(0,0,0)" class="dcg-svg-minor-gridline" paint-order="fill stroke markers" d=" M 359.5 0 L 359.5 400" stroke-opacity="0.2" stroke-miterlimit="10" stroke-dasharray=""/><path fill="none" stroke="rgb(0,0,0)" class="dcg-svg-minor-gridline" paint-order="fill stroke markers" d=" M 379.5 0 L 379.5 400" stroke-opacity="0.2" stroke-miterlimit="10" stroke-dasharray=""/><path fill="none" stroke="rgb(0,0,0)" class="dcg-svg-minor-gridline" paint-order="fill stroke markers" d=" M 0 379.5 L 400 379.5" stroke-opacity="0.2" stroke-miterlimit="10" stroke-dasharray=""/><path fill="none" stroke="rgb(0,0,0)" class="dcg-svg-minor-gridline" paint-order="fill stroke markers" d=" M 0 359.5 L 400 359.5" stroke-opacity="0.2" stroke-miterlimit="10" stroke-dasharray=""/><path fill="none" stroke="rgb(0,0,0)" class="dcg-svg-minor-gridline" paint-order="fill stroke markers" d=" M 0 339.5 L 400 339.5" stroke-opacity="0.2" stroke-miterlimit="10" stroke-dasharray=""/><path fill="none" stroke="rgb(0,0,0)" class="dcg-svg-minor-gridline" paint-order="fill stroke markers" d=" M 0 319.5 L 400 319.5" stroke-opacity="0.2" stroke-miterlimit="10" stroke-dasharray=""/><path fill="none" stroke="rgb(0,0,0)" class="dcg-svg-minor-gridline" paint-order="fill stroke markers" d=" M 0 299.5 L 400 299.5" stroke-opacity="0.2" stroke-miterlimit="10" stroke-dasharray=""/><path fill="none" stroke="rgb(0,0,0)" class="dcg-svg-minor-gridline" paint-order="fill stroke markers" d=" M 0 279.5 L 400 279.5" stroke-opacity="0.2" stroke-miterlimit="10" stroke-dasharray=""/><path fill="none" stroke="rgb(0,0,0)" class="dcg-svg-minor-gridline" paint-order="fill stroke markers" d=" M 0 259.5 L 400 259.5" stroke-opacity="0.2" stroke-miterlimit="10" stroke-dasharray=""/><path fill="none" stroke="rgb(0,0,0)" class="dcg-svg-minor-gridline" paint-order="fill stroke markers" d=" M 0 239.5 L 400 239.5" stroke-opacity="0.2" stroke-miterlimit="10" stroke-dasharray=""/><path fill="none" stroke="rgb(0,0,0)" class="dcg-svg-minor-gridline" paint-order="fill stroke markers" d=" M 0 219.5 L 400 219.5" stroke-opacity="0.2" stroke-miterlimit="10" stroke-dasharray=""/><path fill="none" stroke="rgb(0,0,0)" class="dcg-svg-minor-gridline" paint-order="fill stroke markers" d=" M 0 199.5 L 400 199.5" stroke-opacity="0.2" stroke-miterlimit="10" stroke-dasharray=""/><path fill="none" stroke="rgb(0,0,0)" class="dcg-svg-minor-gridline" paint-order="fill stroke markers" d=" M 0 179.5 L 400 179.5" stroke-opacity="0.2" stroke-miterlimit="10" stroke-dasharray=""/><path fill="none" stroke="rgb(0,0,0)" class="dcg-svg-minor-gridline" paint-order="fill stroke markers" d=" M 0 159.5 L 400 159.5" stroke-opacity="0.2" stroke-miterlimit="10" stroke-dasharray=""/><path fill="none" stroke="rgb(0,0,0)" class="dcg-svg-minor-gridline" paint-order="fill stroke markers" d=" M 0 139.5 L 400 139.5" stroke-opacity="0.2" stroke-miterlimit="10" stroke-dasharray=""/><path fill="none" stroke="rgb(0,0,0)" class="dcg-svg-minor-gridline" paint-order="fill stroke markers" d=" M 0 119.5 L 400 119.5" stroke-opacity="0.2" stroke-miterlimit="10" stroke-dasharray=""/><path fill="none" stroke="rgb(0,0,0)" class="dcg-svg-minor-gridline" paint-order="fill stroke markers" d=" M 0 99.5 L 400 99.5" stroke-opacity="0.2" stroke-miterlimit="10" stroke-dasharray=""/><path fill="none" stroke="rgb(0,0,0)" class="dcg-svg-minor-gridline" paint-order="fill stroke markers" d=" M 0 79.5 L 400 79.5" stroke-opacity="0.2" stroke-miterlimit="10" stroke-dasharray=""/><path fill="none" stroke="rgb(0,0,0)" class="dcg-svg-minor-gridline" paint-order="fill stroke markers" d=" M 0 59.5 L 400 59.5" stroke-opacity="0.2" stroke-miterlimit="10" stroke-dasharray=""/><path fill="none" stroke="rgb(0,0,0)" class="dcg-svg-minor-gridline" paint-order="fill stroke markers" d=" M 0 39.5 L 400 39.5" stroke-opacity="0.2" stroke-miterlimit="10" stroke-dasharray=""/><path fill="none" stroke="rgb(0,0,0)" class="dcg-svg-minor-gridline" paint-order="fill stroke markers" d=" M 0 19.5 L 400 19.5" stroke-opacity="0.2" stroke-miterlimit="10" stroke-dasharray=""/><path fill="none" stroke="rgb(0,0,0)" class="dcg-svg-minor-gridline" paint-order="fill stroke markers" d=" M 0 -0.5 L 400 -0.5" stroke-opacity="0.2" stroke-miterlimit="10" stroke-dasharray=""/><path fill="none" stroke="rgb(0,0,0)" class="dcg-svg-major-gridline" paint-order="fill stroke markers" d=" M 99.5 0 L 99.5 400" stroke-opacity="0.2500000000000001" stroke-miterlimit="10" stroke-dasharray=""/><path fill="none" stroke="rgb(0,0,0)" class="dcg-svg-major-gridline" paint-order="fill stroke markers" d=" M 199.5 0 L 199.5 400" stroke-opacity="0.2500000000000001" stroke-miterlimit="10" stroke-dasharray=""/><path fill="none" stroke="rgb(0,0,0)" class="dcg-svg-major-gridline" paint-order="fill stroke markers" d=" M 299.5 0 L 299.5 400" stroke-opacity="0.2500000000000001" stroke-miterlimit="10" stroke-dasharray=""/><path fill="none" stroke="rgb(0,0,0)" class="dcg-svg-major-gridline" paint-order="fill stroke markers" d=" M 0 299.5 L 400 299.5" stroke-opacity="0.2500000000000001" stroke-miterlimit="10" stroke-dasharray=""/><path fill="none" stroke="rgb(0,0,0)" class="dcg-svg-major-gridline" paint-order="fill stroke markers" d=" M 0 199.5 L 400 199.5" stroke-opacity="0.2500000000000001" stroke-miterlimit="10" stroke-dasharray=""/><path fill="none" stroke="rgb(0,0,0)" class="dcg-svg-major-gridline" paint-order="fill stroke markers" d=" M 0 99.5 L 400 99.5" stroke-opacity="0.2500000000000001" stroke-miterlimit="10" stroke-dasharray=""/><path fill="none" stroke="rgb(0,0,0)" class="dcg-svg-major-gridline" paint-order="fill stroke markers" d=" M 0 -0.5 L 400 -0.5" stroke-opacity="0.2500000000000001" stroke-miterlimit="10" stroke-dasharray=""/></g></g><g id="axis-e6bdfca7"><g id="yaxis-e6bdfca7"><title>Y axis</title><path fill="none" stroke="rgb(0,0,0)" class="dcg-svg-axis-line" paint-order="fill stroke markers" d=" M 0 0 L 0 400" stroke-opacity="0.9" stroke-miterlimit="10" stroke-width="1.5" stroke-dasharray=""/></g><g id="xaxis-e6bdfca7"><title>X axis</title><path fill="none" stroke="rgb(0,0,0)" class="dcg-svg-axis-line" paint-order="fill stroke markers" d=" M 0 400 L 400 400" stroke-opacity="0.9" stroke-miterlimit="10" stroke-width="1.5" stroke-dasharray=""/></g><g><g class="dcg-svg-axis-value"><text fill="none" stroke="#ffffff" font-family="Arial" font-size="14px" font-style="normal" font-weight="normal" text-decoration="normal" x="-8.89306640625" y="415.808" text-anchor="middle" stroke-miterlimit="2" stroke-width="3" stroke-dasharray="">0</text><text fill="#000000" stroke="none" font-family="Arial" font-size="14px" font-style="normal" font-weight="normal" text-decoration="normal" x="-8.89306640625" y="415.808" text-anchor="middle">0</text></g><g class="dcg-svg-axis-value"><text fill="none" stroke="#ffffff" font-family="Arial" font-size="14px" font-style="normal" font-weight="normal" text-decoration="normal" x="100" y="393.808" text-anchor="middle" stroke-miterlimit="2" stroke-width="3" stroke-dasharray="">50</text><text fill="rgb(150,150,150)" stroke="none" font-family="Arial" font-size="14px" font-style="normal" font-weight="normal" text-decoration="normal" x="100" y="393.808" text-anchor="middle" fill-opacity="1">50</text></g><g class="dcg-svg-axis-value"><text fill="none" stroke="#ffffff" font-family="Arial" font-size="14px" font-style="normal" font-weight="normal" text-decoration="normal" x="200" y="393.808" text-anchor="middle" stroke-miterlimit="2" stroke-width="3" stroke-dasharray="">100</text><text fill="rgb(150,150,150)" stroke="none" font-family="Arial" font-size="14px" font-style="normal" font-weight="normal" text-decoration="normal" x="200" y="393.808" text-anchor="middle" fill-opacity="1">100</text></g><g class="dcg-svg-axis-value"><text fill="none" stroke="#ffffff" font-family="Arial" font-size="14px" font-style="normal" font-weight="normal" text-decoration="normal" x="300" y="393.808" text-anchor="middle" stroke-miterlimit="2" stroke-width="3" stroke-dasharray="">150</text><text fill="rgb(150,150,150)" stroke="none" font-family="Arial" font-size="14px" font-style="normal" font-weight="normal" text-decoration="normal" x="300" y="393.808" text-anchor="middle" fill-opacity="1">150</text></g><g class="dcg-svg-axis-value dcg-svg-offcenter-axis-value"><text fill="none" stroke="#ffffff" font-family="Arial" font-size="14px" font-style="normal" font-weight="normal" text-decoration="normal" x="385.32080078125" y="393.808" text-anchor="middle" stroke-miterlimit="2" stroke-width="3" stroke-dasharray="">200</text><text fill="rgb(150,150,150)" stroke="none" font-family="Arial" font-size="14px" font-style="normal" font-weight="normal" text-decoration="normal" x="385.32080078125" y="393.808" text-anchor="middle" fill-opacity="1">200</text></g><g class="dcg-svg-axis-value"><text fill="none" stroke="#ffffff" font-family="Arial" font-size="14px" font-style="normal" font-weight="normal" text-decoration="normal" x="6.89306640625" y="303.808" text-anchor="middle" stroke-miterlimit="2" stroke-width="3" stroke-dasharray="">5</text><text fill="rgb(150,150,150)" stroke="none" font-family="Arial" font-size="14px" font-style="normal" font-weight="normal" text-decoration="normal" x="6.89306640625" y="303.808" text-anchor="middle" fill-opacity="1">5</text></g><g class="dcg-svg-axis-value"><text fill="none" stroke="#ffffff" font-family="Arial" font-size="14px" font-style="normal" font-weight="normal" text-decoration="normal" x="10.7861328125" y="203.808" text-anchor="middle" stroke-miterlimit="2" stroke-width="3" stroke-dasharray="">10</text><text fill="rgb(150,150,150)" stroke="none" font-family="Arial" font-size="14px" font-style="normal" font-weight="normal" text-decoration="normal" x="10.7861328125" y="203.808" text-anchor="middle" fill-opacity="1">10</text></g><g class="dcg-svg-axis-value"><text fill="none" stroke="#ffffff" font-family="Arial" font-size="14px" font-style="normal" font-weight="normal" text-decoration="normal" x="10.7861328125" y="103.808" text-anchor="middle" stroke-miterlimit="2" stroke-width="3" stroke-dasharray="">15</text><text fill="rgb(150,150,150)" stroke="none" font-family="Arial" font-size="14px" font-style="normal" font-weight="normal" text-decoration="normal" x="10.7861328125" y="103.808" text-anchor="middle" fill-opacity="1">15</text></g><g class="dcg-svg-axis-value dcg-svg-offcenter-axis-value"><text fill="none" stroke="#ffffff" font-family="Arial" font-size="14px" font-style="normal" font-weight="normal" text-decoration="normal" x="10.7861328125" y="13.808" text-anchor="middle" stroke-miterlimit="2" stroke-width="3" stroke-dasharray="">20</text><text fill="rgb(150,150,150)" stroke="none" font-family="Arial" font-size="14px" font-style="normal" font-weight="normal" text-decoration="normal" x="10.7861328125" y="13.808" text-anchor="middle" fill-opacity="1">20</text></g></g></g></g><g id="expressions-e6bdfca7"><g id="sketch-e6bdfca7"><title>Expression 15</title><path fill="#2d70b3" stroke="none" paint-order="stroke fill markers" d="" fill-opacity="0.4"/><g><path fill="none" stroke="#2d70b3" class="dcg-svg-curve" paint-order="fill stroke markers" d=" M 29.136144675627847 -5.5 L 29.136144675627847 -5.5 L 29.573230268510986 0.47402597402600577 L 30.451993490642796 11.802839116719156 L 31.330756712774612 22.506134969325103 L 32.307160292921075 33.72619047619048 L 33.283563873067536 44.2976878612717 L 34.259967453213996 54.27528089887642 L 35.236371033360456 63.70765027322403 L 36.212774613506916 72.63829787234044 L 37.189178193653376 81.1062176165803 L 38.16558177379984 89.14646464646472 L 39.23962571196095 97.53439803439807 L 40.31366965012205 105.48086124401914 L 41.387713588283155 113.01981351981351 L 42.461757526444266 120.18181818181819 L 43.633441822620014 127.59734513274338 L 44.80512611879577 134.62931034482756 L 45.97681041497152 141.30672268907563 L 47.14849471114728 147.65573770491807 L 48.41781936533767 154.19061876247505 L 49.68714401952807 160.39494163424123 L 50.956468673718476 166.29316888045545 L 52.32343368592351 172.32809611829944 L 53.690398698128554 178.05855855855853 L 55.15500406834825 183.88596491228068 L 56.61960943856794 189.4145299145299 L 58.18185516680228 195.00748752079866 L 59.74410089503661 200.31037277147487 L 61.40398698128559 205.65141955835958 L 63.06387306753459 210.71351766513058 L 64.8213995117982 215.7929745889387 L 66.6765663140765 220.86627906976747 L 68.6293734743694 225.91242937853107 L 70.58218063466232 230.6813186813187 L 72.6326281529699 235.41455273698267 L 74.78071602929211 240.09662775616084 L 77.02644426362897 244.7141057934509 L 79.36981285598047 249.25550122249388 L 81.81082180634662 253.7111506524318 L 84.34947111472742 258.0730724971231 L 86.98576078112286 262.33482142857144 L 89.71969080553295 266.491341991342 L 92.64890154597234 270.6740041928721 L 95.67575264442637 274.7284263959391 L 98.89788445890969 278.77308447937133 L 102.21765663140765 282.6749049429658 L 105.73270951993491 286.5404411764706 L 109.44304312449145 290.3525754884547 L 113.3486574450773 294.0969125214408 L 117.44955248169244 297.7615894039735 L 121.74572823433687 301.3370607028754 L 126.33482506102521 304.8887605850654 L 131.11920260374288 308.32789317507417 L 136.19650122050447 311.7142857142857 L 141.56672091131003 315.03264604811 L 147.2298616761595 318.2706543291474 L 153.28356387306752 321.468253968254 L 159.7278275020342 324.6066422912858 L 166.5626525630594 327.67066043249565 L 173.88567941415786 330.68701007838746 L 181.59926769731487 333.6018766756032 L 189.89869812855983 336.474358974359 L 198.78397070789262 339.2844194022538 L 208.25508543531328 342.01637043966326 L 218.40968266883644 344.68287243532563 L 229.3454027664768 347.2909940526763 L 241.159886086249 349.84343434343435 L 253.85313262815296 352.3214971209213 L 267.62042310821806 354.7439912600146 L 282.4617575264443 357.0914423740511 L 298.57241659886085 359.3759386222657 L 316.14768104149715 361.6029910576627 L 335.28519121236775 363.7628671125327 L 356.180227827502 365.8564193813304 L 359.5 366.1666666666667" stroke-linecap="round" stroke-linejoin="round" stroke-miterlimit="10" stroke-width="2.5" stroke-opacity="0.9" stroke-dasharray=""/></g></g><g id="sketch-e6bdfca7"><title>Expression 17</title><path fill="#388c46" stroke="none" paint-order="stroke fill markers" d="" fill-opacity="0.4"/><g><path fill="none" stroke="#388c46" class="dcg-svg-curve" paint-order="fill stroke markers" d=" M -0.490234375 266.16644060751423 L -0.490234375 266.16644060751423 L 59.64646053702197 264.64431079370434 L 110.41944670463792 263.1059152318829 L 153.1859235150529 261.55718698464557 L 189.21521562245726 259.9999041218666 L 219.5813669650122 258.4346410517058 L 245.06550040683484 256.8688791279957 L 266.4487388120423 255.303207279011 L 284.4145646867372 253.73431116279812 L 299.353539462978 252.17659708040014 L 311.75386493083806 250.630646860444 L 322.0061025223759 249.09889604600045 L 330.40317331163544 247.5909081644894 L 337.2379983726607 246.1100422046006 L 342.70585842148085 244.67485342267338 L 347.09967453213994 243.2694236029585 L 350.51708706265254 241.92767223266418 L 353.15337672904803 240.64753741531482 L 355.20382424735556 239.39889965486913 L 356.66842961757527 238.26418490175638 L 357.74247355573635 237.1872171035222 L 358.42595606183886 236.28613866195437 L 358.91415785191214 235.41840375033752 L 359.20707892595607 234.68225278425166 L 359.40235964198536 233.9134684741009 L 359.5 232.83333333333331" stroke-linecap="round" stroke-linejoin="round" stroke-miterlimit="10" stroke-width="2.5" stroke-opacity="0.9" stroke-dasharray=""/></g></g><g id="sketch-e6bdfca7"><title>Expression 19</title><path fill="#6042a6" stroke="none" paint-order="stroke fill markers" d="" fill-opacity="0.4"/><g><path fill="none" stroke="#6042a6" class="dcg-svg-curve" paint-order="fill stroke markers" d=" M 43.8576687191152 -5.5 L 43.8576687191152 -5.5 L 44.609845402766474 -0.9659010055594308 L 45.78152969894223 5.737684757120064 L 46.95321399511798 12.108582802119258 L 48.22253864930838 18.662787108856378 L 49.49186330349878 24.88230494660462 L 50.76118795768918 30.79198761184233 L 52.128152969894224 36.83546107116126 L 53.495117982099266 42.57090507570342 L 54.95972335231896 48.40006727745447 L 56.42432872253865 53.927030364739494 L 57.98657445077299 59.51492880646845 L 59.54882017900732 64.80961988595726 L 61.2087062652563 70.13884848183358 L 62.868592351505285 75.186219045955 L 64.62611879576892 80.24720482986658 L 66.4812855980472 85.29809792397805 L 68.33645240032547 90.07359212653387 L 70.28925956061839 94.82667530637093 L 72.33970707892595 99.53949934469455 L 74.48779495524816 104.19640070490107 L 76.73352318958503 108.78380685135608 L 79.07689178193654 113.29011885211418 L 81.51790073230268 117.70557745395632 L 84.05655004068349 122.02211893604021 L 86.69283970707893 126.23322603960253 L 89.42676973148902 130.33377829159065 L 92.3559804719284 134.45291082230284 L 95.38283157038242 138.4381357204615 L 98.5073230268511 142.28917388120578 L 101.82709519934906 146.11537341270707 L 105.34214808787632 149.89634939789153 L 108.95484133441822 153.52011154962753 L 112.76281529698942 157.07954885837694 L 116.76606997558991 160.56138039906367 L 121.06224572823433 164.03059910035049 L 125.55370219690806 167.3912118102374 L 130.24043938161105 170.6372140475676 L 135.220097640358 173.82428468747293 L 140.49267697314892 176.93538830730768 L 146.05817737998373 179.95638549605104 L 151.91659886086248 182.8757506944194 L 158.16558177379983 185.72687924628778 L 164.80512611879576 188.4913241028353 L 171.83523189585028 191.15370843012408 L 179.2558991049634 193.7013351537027 L 187.16476810414974 196.15247949746578 L 195.5618388934093 198.48957890055942 L 204.44711147274208 200.697447498796 L 213.8205858421481 202.76262486448604 L 223.68226200162735 204.67261920131602 L 234.03213995117983 206.41500560033694 L 244.87021969080556 207.97629337654803 L 256.00122050447516 209.3191054370056 L 267.4251423921888 210.4360767129764 L 278.8490642799024 211.29366679267275 L 290.07770545158667 211.87883987170073 L 300.8181448331977 212.18277317486724 L 310.87510170870627 212.2111376368801 L 319.9556550040684 211.98181902774098 L 327.96216436126934 211.5250516447926 L 334.7969894222946 210.88267156015004 L 340.5577705451587 210.08767239497877 L 345.2445077298617 209.19011899678975 L 349.0524816924329 208.20762596663587 L 351.98169243287225 207.2067725538496 L 354.2274206672091 206.20160545416388 L 355.98494711147276 205.16646638543315 L 357.25427176566313 204.17078079645574 L 358.13303498779493 203.2425528753633 L 358.71887713588285 202.39469956561072 L 359.1094385679414 201.58962519442628 L 359.3047192839707 200.99926725941407 L 359.40235964198536 200.57109191414435 L 359.5 199.5" stroke-linecap="round" stroke-linejoin="round" stroke-miterlimit="10" stroke-width="2.5" stroke-opacity="0.9" stroke-dasharray=""/></g></g><g id="sketch-e6bdfca7"><title>Expression 21</title><path fill="#fa7e19" stroke="none" paint-order="stroke fill markers" d="" fill-opacity="0.4"/><g><path fill="none" stroke="#fa7e19" class="dcg-svg-curve" paint-order="fill stroke markers" d=" M -0.5 266.16666666666663 L -0.5 266.16666666666663 L 34.74816924328723 264.404277162662 L 65.70016273393003 262.60188159093786 L 93.03946297803091 260.755189041548 L 117.25427176566313 258.8648439456158 L 138.83279088689991 256.92436887394723 L 157.97030105777054 254.94869113654428 L 175.15500406834826 252.91840886392606 L 190.48454027664766 250.85179951966398 L 204.2518307567128 248.74056820508568 L 216.65215622457282 246.58325148058998 L 227.8807973962571 244.3722372347877 L 237.93775427176567 242.13716085659897 L 247.11594792514236 239.84076883409185 L 255.41537835638732 237.5078481434353 L 262.93368592351504 235.1398321166235 L 269.7685109845403 232.73366174069693 L 276.0174938974776 230.2798945251503 L 281.77827502034177 227.7604281853167 L 287.05085435313265 225.1958002127755 L 291.83523189585026 222.61374692771204 L 296.2290480065094 219.9888909591537 L 300.3299430431245 217.27971042618643 L 304.040276647681 214.57390675090494 L 307.4576891781937 211.82985808375372 L 310.679820992677 208.98296661217108 L 313.60903173311635 206.13880861547668 L 316.34296175752644 203.22707222994723 L 318.88161106590724 200.2641374791532 L 321.22497965825875 197.2714312331976 L 323.37306753458097 194.27608602569433 L 325.4235150528885 191.15656501435353 L 327.3763222131814 187.9120330556741 L 329.13384865744507 184.72821936924882 L 330.7937347436941 181.4566166072329 L 332.3559804719284 178.10720354495882 L 333.8205858421481 174.69343230046792 L 335.1875508543531 171.23279229296958 L 336.45687550854353 167.74736411689184 L 337.6285598047193 164.2643150784878 L 338.80024410089504 160.48957099890242 L 339.8742880390561 156.73646753347094 L 340.85069161920256 153.04687924319748 L 341.82709519934906 149.0555999865866 L 342.70585842148085 145.16973900960227 L 343.58462164361265 140.96633059385067 L 344.36574450772986 136.92660879811325 L 345.146867371847 132.56144625754206 L 345.9279902359642 127.82466087888412 L 346.6114727420667 123.3314626973546 L 347.29495524816923 118.46593322434234 L 347.9784377542718 113.17363545570402 L 348.5642799023596 108.24786026718323 L 349.1501220504475 102.90956599534559 L 349.7359641985354 97.09776022319659 L 350.3218063466233 90.73802960383779 L 350.90764849471117 83.73848743802694 L 351.49349064279903 75.98411780480552 L 351.98169243287225 68.84124078313619 L 352.46989422294547 60.96667287746118 L 352.95809601301875 52.22630829996183 L 353.4462978030919 42.448898432230294 L 353.9344995931652 31.411684273185983 L 354.4227013832384 18.81859469845307 L 354.9109031733116 4.265990158017871 L 355.1900562156031 -5.5" stroke-linecap="round" stroke-linejoin="round" stroke-miterlimit="10" stroke-width="2.5" stroke-opacity="0.9" stroke-dasharray=""/></g></g></g><g id="labels-e6bdfca7"/></g></svg>